<?xml version="1.0" encoding="UTF-8" standalone="no"?>
<svg width="105px" height="30px" viewBox="0 0 105 30" version="1.1" xmlns="http://www.w3.org/2000/svg" xmlns:xlink="http://www.w3.org/1999/xlink">
    <!-- Generator: Sketch 50.2 (55047) - http://www.bohemiancoding.com/sketch -->
    <title>bling</title>
    <desc>Created with Sketch.</desc>
    <defs></defs>
    <g id="Page-1" stroke="none" stroke-width="1" fill="none" fill-rule="evenodd">
        <g id="Mock-up" transform="translate(-1142.000000, -1289.000000)" fill="#FFFFFF">
            <g id="Prod-Group" transform="translate(81.000000, 1000.000000)">
                <g id="Products" transform="translate(0.000000, 143.000000)">
                    <g id="ACCESSORIES" transform="translate(965.000000, 16.000000)">
                        <path d="M96.6,131 L102.88,131 C107.24,131 108.96,133.08 108.96,137.2 L108.96,138.52 C108.96,141.48 108.12,143.32 105.68,144.08 C108.4,144.84 109.44,147 109.44,150.08 L109.44,152.44 C109.44,156.64 107.4,159 103.04,159 L96.6,159 L96.6,131 Z M99.72,142.88 L102.12,142.88 C104.6,142.88 105.88,142.08 105.88,139.16 L105.88,137.52 C105.88,135.04 105.04,133.84 102.8,133.84 L99.72,133.84 L99.72,142.88 Z M99.72,156.16 L103.04,156.16 C105.32,156.16 106.36,154.96 106.36,152.36 L106.36,149.88 C106.36,146.76 105.12,145.72 102.44,145.72 L99.72,145.72 L99.72,156.16 Z M133.4,159 L122.28,159 L122.28,131 L125.4,131 L125.4,156.16 L133.4,156.16 L133.4,159 Z M145.76,131 L148.88,131 L148.88,159 L145.76,159 L145.76,131 Z M164.84,136.36 L164.84,159 L162.04,159 L162.04,131 L166,131 L172.48,151.24 L172.48,131 L175.24,131 L175.24,159 L172,159 L164.84,136.36 Z M194.48,130.72 C198.8,130.72 200.8,133.52 200.8,137.76 L200.8,140.16 L197.84,140.16 L197.84,137.6 C197.84,135.08 196.84,133.56 194.56,133.56 C192.32,133.56 191.28,135.08 191.28,137.6 L191.28,152.4 C191.28,154.92 192.32,156.44 194.56,156.44 C196.84,156.44 197.84,154.92 197.84,152.4 L197.84,146.8 L194.96,146.8 L194.96,144 L200.8,144 L200.8,152.24 C200.8,156.48 198.8,159.28 194.48,159.28 C190.2,159.28 188.2,156.48 188.2,152.24 L188.2,137.76 C188.2,133.52 190.2,130.72 194.48,130.72 Z" id="bling"></path>
                    </g>
                </g>
            </g>
        </g>
    </g>
</svg>