<?xml version="1.0" encoding="UTF-8" standalone="no"?>
<svg width="89px" height="30px" viewBox="0 0 89 30" version="1.1" xmlns="http://www.w3.org/2000/svg" xmlns:xlink="http://www.w3.org/1999/xlink">
    <!-- Generator: Sketch 50.2 (55047) - http://www.bohemiancoding.com/sketch -->
    <title>hats</title>
    <desc>Created with Sketch.</desc>
    <defs></defs>
    <g id="Page-1" stroke="none" stroke-width="1" fill="none" fill-rule="evenodd">
        <g id="Mock-up" transform="translate(-842.000000, -1288.000000)" fill="#FFFFFF">
            <g id="Prod-Group" transform="translate(81.000000, 1000.000000)">
                <g id="Products" transform="translate(0.000000, 143.000000)">
                    <g id="HATS" transform="translate(638.000000, 1.000000)">
                        <path d="M133.6,160.4 L126.72,160.4 L126.72,173 L123.6,173 L123.6,145 L126.72,145 L126.72,157.6 L133.6,157.6 L133.6,145 L136.72,145 L136.72,173 L133.6,173 L133.6,160.4 Z M160.16,167.36 L153.08,167.36 L152,173 L149.12,173 L154.48,145 L159,145 L164.36,173 L161.24,173 L160.16,167.36 Z M156.56,148.52 L153.48,164.68 L159.72,164.68 L156.56,148.52 Z M182.4,173 L179.32,173 L179.32,147.84 L174.16,147.84 L174.16,145 L187.56,145 L187.56,147.84 L182.4,147.84 L182.4,173 Z M205.56,144.72 C209.8,144.72 211.8,147.48 211.8,151.72 L211.8,152.48 L208.84,152.48 L208.84,151.56 C208.84,149.04 207.88,147.56 205.64,147.56 C203.4,147.56 202.44,149.04 202.44,151.52 C202.44,157.8 211.84,158.4 211.84,166.28 C211.84,170.52 209.8,173.28 205.52,173.28 C201.24,173.28 199.24,170.52 199.24,166.28 L199.24,164.68 L202.16,164.68 L202.16,166.44 C202.16,168.96 203.2,170.44 205.44,170.44 C207.68,170.44 208.72,168.96 208.72,166.44 C208.72,160.2 199.36,159.6 199.36,151.72 C199.36,147.4 201.36,144.72 205.56,144.72 Z" id="hats"></path>
                    </g>
                </g>
            </g>
        </g>
    </g>
</svg>