<?xml version="1.0" encoding="UTF-8" standalone="no"?>
<svg width="115px" height="30px" viewBox="0 0 115 30" version="1.1" xmlns="http://www.w3.org/2000/svg" xmlns:xlink="http://www.w3.org/1999/xlink">
    <!-- Generator: Sketch 50.2 (55047) - http://www.bohemiancoding.com/sketch -->
    <title>PANts</title>
    <desc>Created with Sketch.</desc>
    <defs></defs>
    <g id="Page-1" stroke="none" stroke-width="1" fill="none" fill-rule="evenodd">
        <g id="Mock-up" transform="translate(-505.000000, -1290.000000)" fill="#FFFFFF">
            <g id="Prod-Group" transform="translate(81.000000, 1000.000000)">
                <g id="Products" transform="translate(0.000000, 143.000000)">
                    <g id="PANTS" transform="translate(332.000000, 0.000000)">
                        <path d="M92.6,148 L98.72,148 C103.12,148 105,150.6 105,154.84 L105,158.2 C105,162.64 102.92,164.96 98.48,164.96 L95.72,164.96 L95.72,176 L92.6,176 L92.6,148 Z M95.72,162.16 L98.48,162.16 C100.8,162.16 101.92,161.08 101.92,158.4 L101.92,154.68 C101.92,152.12 101,150.84 98.72,150.84 L95.72,150.84 L95.72,162.16 Z M127.28,170.36 L120.2,170.36 L119.12,176 L116.24,176 L121.6,148 L126.12,148 L131.48,176 L128.36,176 L127.28,170.36 Z M123.68,151.52 L120.6,167.68 L126.84,167.68 L123.68,151.52 Z M146.68,153.36 L146.68,176 L143.88,176 L143.88,148 L147.84,148 L154.32,168.24 L154.32,148 L157.08,148 L157.08,176 L153.84,176 L146.68,153.36 Z M177.4,176 L174.32,176 L174.32,150.84 L169.16,150.84 L169.16,148 L182.56,148 L182.56,150.84 L177.4,150.84 L177.4,176 Z M200.56,147.72 C204.8,147.72 206.8,150.48 206.8,154.72 L206.8,155.48 L203.84,155.48 L203.84,154.56 C203.84,152.04 202.88,150.56 200.64,150.56 C198.4,150.56 197.44,152.04 197.44,154.52 C197.44,160.8 206.84,161.4 206.84,169.28 C206.84,173.52 204.8,176.28 200.52,176.28 C196.24,176.28 194.24,173.52 194.24,169.28 L194.24,167.68 L197.16,167.68 L197.16,169.44 C197.16,171.96 198.2,173.44 200.44,173.44 C202.68,173.44 203.72,171.96 203.72,169.44 C203.72,163.2 194.36,162.6 194.36,154.72 C194.36,150.4 196.36,147.72 200.56,147.72 Z" id="PANts"></path>
                    </g>
                </g>
            </g>
        </g>
    </g>
</svg>