<?xml version="1.0" encoding="UTF-8" standalone="no"?>
<svg width="131px" height="30px" viewBox="0 0 131 30" version="1.1" xmlns="http://www.w3.org/2000/svg" xmlns:xlink="http://www.w3.org/1999/xlink">
    <!-- Generator: Sketch 50.2 (55047) - http://www.bohemiancoding.com/sketch -->
    <title>shirts</title>
    <desc>Created with Sketch.</desc>
    <defs></defs>
    <g id="Page-1" stroke="none" stroke-width="1" fill="none" fill-rule="evenodd">
        <g id="Mock-up" transform="translate(-184.000000, -1290.000000)" fill="#FFFFFF">
            <g id="Prod-Group" transform="translate(81.000000, 1000.000000)">
                <g id="Products" transform="translate(0.000000, 143.000000)">
                    <g id="SHIRTS" transform="translate(0.000000, 1.000000)">
                        <path d="M109.48,146.72 C113.72,146.72 115.72,149.48 115.72,153.72 L115.72,154.48 L112.76,154.48 L112.76,153.56 C112.76,151.04 111.8,149.56 109.56,149.56 C107.32,149.56 106.36,151.04 106.36,153.52 C106.36,159.8 115.76,160.4 115.76,168.28 C115.76,172.52 113.72,175.28 109.44,175.28 C105.16,175.28 103.16,172.52 103.16,168.28 L103.16,166.68 L106.08,166.68 L106.08,168.44 C106.08,170.96 107.12,172.44 109.36,172.44 C111.6,172.44 112.64,170.96 112.64,168.44 C112.64,162.2 103.28,161.6 103.28,153.72 C103.28,149.4 105.28,146.72 109.48,146.72 Z M138.48,162.4 L131.6,162.4 L131.6,175 L128.48,175 L128.48,147 L131.6,147 L131.6,159.6 L138.48,159.6 L138.48,147 L141.6,147 L141.6,175 L138.48,175 L138.48,162.4 Z M154.8,147 L157.92,147 L157.92,175 L154.8,175 L154.8,147 Z M171.12,147 L177.36,147 C181.76,147 183.6,149.24 183.6,153.4 L183.6,155.68 C183.6,158.76 182.52,160.68 180.12,161.44 C182.68,162.2 183.64,164.28 183.64,167.28 L183.64,171.64 C183.64,172.88 183.68,174.04 184.2,175 L181.04,175 C180.68,174.2 180.52,173.48 180.52,171.6 L180.52,167.2 C180.52,164.04 179.04,163.04 176.44,163.04 L174.24,163.04 L174.24,175 L171.12,175 L171.12,147 Z M174.24,160.2 L176.56,160.2 C179.04,160.2 180.52,159.4 180.52,156.36 L180.52,153.68 C180.52,151.16 179.6,149.84 177.28,149.84 L174.24,149.84 L174.24,160.2 Z M204,175 L200.92,175 L200.92,149.84 L195.76,149.84 L195.76,147 L209.16,147 L209.16,149.84 L204,149.84 L204,175 Z M227.16,146.72 C231.4,146.72 233.4,149.48 233.4,153.72 L233.4,154.48 L230.44,154.48 L230.44,153.56 C230.44,151.04 229.48,149.56 227.24,149.56 C225,149.56 224.04,151.04 224.04,153.52 C224.04,159.8 233.44,160.4 233.44,168.28 C233.44,172.52 231.4,175.28 227.12,175.28 C222.84,175.28 220.84,172.52 220.84,168.28 L220.84,166.68 L223.76,166.68 L223.76,168.44 C223.76,170.96 224.8,172.44 227.04,172.44 C229.28,172.44 230.32,170.96 230.32,168.44 C230.32,162.2 220.96,161.6 220.96,153.72 C220.96,149.4 222.96,146.72 227.16,146.72 Z" id="shirts"></path>
                    </g>
                </g>
            </g>
        </g>
    </g>
</svg>