<?xml version="1.0" encoding="UTF-8" standalone="no"?>
<svg width="312px" height="37px" viewBox="0 0 312 37" version="1.1" xmlns="http://www.w3.org/2000/svg" xmlns:xlink="http://www.w3.org/1999/xlink">
    <!-- Generator: Sketch 50.2 (55047) - http://www.bohemiancoding.com/sketch -->
    <title>at Momentum</title>
    <desc>Created with Sketch.</desc>
    <defs></defs>
    <g id="Page-1" stroke="none" stroke-width="1" fill="none" fill-rule="evenodd">
        <g id="Mock-up" transform="translate(-390.000000, -3069.000000)" fill="#FFFFFF">
            <g id="About" transform="translate(-9.000000, 2947.000000)">
                <g transform="translate(398.000000, 110.000000)" id="at-Momentum">
                    <path d="M16.25,40.25 L5.35,40.25 L3.6,48 L1.5,48 L9.15,12.95 L12.5,12.95 L20.3,48 L18,48 L16.25,40.25 Z M10.75,15.6 L5.7,38.25 L15.9,38.25 L10.75,15.6 Z M40.1,48 L37.8,48 L37.8,15.1 L30.7,15.1 L30.7,13 L47.25,13 L47.25,15.1 L40.1,15.1 L40.1,48 Z M96.9,16.9 L89.6,47.95 L87.3,47.95 L79.9,17 L79.9,48 L77.85,48 L77.85,13 L81.15,13 L88.5,43.95 L95.8,13 L99.1,13 L99.1,48 L96.9,48 L96.9,16.9 Z M112.95,39.45 L112.95,21.55 C112.95,16.45 115.3,12.7 120.6,12.7 C126,12.7 128.35,16.45 128.35,21.55 L128.35,39.45 C128.35,44.55 126,48.3 120.6,48.3 C115.3,48.3 112.95,44.55 112.95,39.45 Z M115.25,21.4 L115.25,39.6 C115.25,43.4 116.75,46.2 120.6,46.2 C124.5,46.2 126.05,43.4 126.05,39.6 L126.05,21.4 C126.05,17.6 124.5,14.8 120.6,14.8 C116.75,14.8 115.25,17.6 115.25,21.4 Z M161.2,16.9 L153.9,47.95 L151.6,47.95 L144.2,17 L144.2,48 L142.15,48 L142.15,13 L145.45,13 L152.8,43.95 L160.1,13 L163.4,13 L163.4,48 L161.2,48 L161.2,16.9 Z M179.7,29.2 L189.25,29.2 L189.25,31.3 L179.7,31.3 L179.7,45.9 L191.2,45.9 L191.2,48 L177.4,48 L177.4,13 L191.2,13 L191.2,15.1 L179.7,15.1 L179.7,29.2 Z M207.05,16.8 L207.05,48 L204.95,48 L204.95,13 L207.95,13 L218.45,42.55 L218.45,13 L220.55,13 L220.55,48 L218,48 L207.05,16.8 Z M242.7,48 L240.4,48 L240.4,15.1 L233.3,15.1 L233.3,13 L249.85,13 L249.85,15.1 L242.7,15.1 L242.7,48 Z M264.9,13 L264.9,39.55 C264.9,43.3 266.3,46.2 270.15,46.2 C274,46.2 275.4,43.3 275.4,39.55 L275.4,13 L277.55,13 L277.55,39.45 C277.55,44.45 275.45,48.3 270.1,48.3 C264.75,48.3 262.6,44.45 262.6,39.45 L262.6,13 L264.9,13 Z M310.55,16.9 L303.25,47.95 L300.95,47.95 L293.55,17 L293.55,48 L291.5,48 L291.5,13 L294.8,13 L302.15,43.95 L309.45,13 L312.75,13 L312.75,48 L310.55,48 L310.55,16.9 Z"></path>
                </g>
            </g>
        </g>
    </g>
</svg>