<?xml version="1.0" encoding="UTF-8" standalone="no"?>
<svg width="201px" height="81px" viewBox="0 0 201 81" version="1.1" xmlns="http://www.w3.org/2000/svg" xmlns:xlink="http://www.w3.org/1999/xlink">
    <!-- Generator: Sketch 50.2 (55047) - http://www.bohemiancoding.com/sketch -->
    <title>best-ban</title>
    <desc>Created with Sketch.</desc>
    <defs></defs>
    <g id="Page-1" stroke="none" stroke-width="1" fill="none" fill-rule="evenodd">
        <g id="Mock-up" transform="translate(-97.000000, -1556.000000)">
            <g id="Prod-Group" transform="translate(81.000000, 1000.000000)">
                <g id="best-sellers" transform="translate(14.000000, 549.000000)">
                    <g id="best-ban" transform="translate(2.000000, 0.000000)">
                        <path d="M9.35,39.65 C14.65,39.65 17.15,43.1 17.15,48.4 L17.15,49.35 L13.45,49.35 L13.45,48.2 C13.45,45.05 12.25,43.2 9.45,43.2 C6.65,43.2 5.45,45.05 5.45,48.15 C5.45,56 17.2,56.75 17.2,66.6 C17.2,71.9 14.65,75.35 9.3,75.35 C3.95,75.35 1.45,71.9 1.45,66.6 L1.45,64.6 L5.1,64.6 L5.1,66.8 C5.1,69.95 6.4,71.8 9.2,71.8 C12,71.8 13.3,69.95 13.3,66.8 C13.3,59 1.6,58.25 1.6,48.4 C1.6,43 4.1,39.65 9.35,39.65 Z M37,55.5 L45.55,55.5 L45.55,59 L37,59 L37,71.45 L47.5,71.45 L47.5,75 L33.1,75 L33.1,40 L47.5,40 L47.5,43.55 L37,43.55 L37,55.5 Z M77.5,75 L63.6,75 L63.6,40 L67.5,40 L67.5,71.45 L77.5,71.45 L77.5,75 Z M106.85,75 L92.95,75 L92.95,40 L96.85,40 L96.85,71.45 L106.85,71.45 L106.85,75 Z M126.2,55.5 L134.75,55.5 L134.75,59 L126.2,59 L126.2,71.45 L136.7,71.45 L136.7,75 L122.3,75 L122.3,40 L136.7,40 L136.7,43.55 L126.2,43.55 L126.2,55.5 Z M152.8,40 L160.6,40 C166.1,40 168.4,42.8 168.4,48 L168.4,50.85 C168.4,54.7 167.05,57.1 164.05,58.05 C167.25,59 168.45,61.6 168.45,65.35 L168.45,70.8 C168.45,72.35 168.5,73.8 169.15,75 L165.2,75 C164.75,74 164.55,73.1 164.55,70.75 L164.55,65.25 C164.55,61.3 162.7,60.05 159.45,60.05 L156.7,60.05 L156.7,75 L152.8,75 L152.8,40 Z M156.7,56.5 L159.6,56.5 C162.7,56.5 164.55,55.5 164.55,51.7 L164.55,48.35 C164.55,45.2 163.4,43.55 160.5,43.55 L156.7,43.55 L156.7,56.5 Z M192.35,39.65 C197.65,39.65 200.15,43.1 200.15,48.4 L200.15,49.35 L196.45,49.35 L196.45,48.2 C196.45,45.05 195.25,43.2 192.45,43.2 C189.65,43.2 188.45,45.05 188.45,48.15 C188.45,56 200.2,56.75 200.2,66.6 C200.2,71.9 197.65,75.35 192.3,75.35 C186.95,75.35 184.45,71.9 184.45,66.6 L184.45,64.6 L188.1,64.6 L188.1,66.8 C188.1,69.95 189.4,71.8 192.2,71.8 C195,71.8 196.3,69.95 196.3,66.8 C196.3,59 184.6,58.25 184.6,48.4 C184.6,43 187.1,39.65 192.35,39.65 Z" id="sellers" fill="#212121"></path>
                        <rect id="Rectangle-6" fill="#00D8DA" x="0" y="85" width="70" height="3"></rect>
                        <path d="M1.2,8 L5.91,8 C9.18,8 10.47,9.56 10.47,12.65 L10.47,13.64 C10.47,15.86 9.84,17.24 8.01,17.81 C10.05,18.38 10.83,20 10.83,22.31 L10.83,24.08 C10.83,27.23 9.3,29 6.03,29 L1.2,29 L1.2,8 Z M3.54,16.91 L5.34,16.91 C7.2,16.91 8.16,16.31 8.16,14.12 L8.16,12.89 C8.16,11.03 7.53,10.13 5.85,10.13 L3.54,10.13 L3.54,16.91 Z M3.54,26.87 L6.03,26.87 C7.74,26.87 8.52,25.97 8.52,24.02 L8.52,22.16 C8.52,19.82 7.59,19.04 5.58,19.04 L3.54,19.04 L3.54,26.87 Z M22.8,17.3 L27.93,17.3 L27.93,19.4 L22.8,19.4 L22.8,26.87 L29.1,26.87 L29.1,29 L20.46,29 L20.46,8 L29.1,8 L29.1,10.13 L22.8,10.13 L22.8,17.3 Z M43.17,7.79 C46.35,7.79 47.85,9.86 47.85,13.04 L47.85,13.61 L45.63,13.61 L45.63,12.92 C45.63,11.03 44.91,9.92 43.23,9.92 C41.55,9.92 40.83,11.03 40.83,12.89 C40.83,17.6 47.88,18.05 47.88,23.96 C47.88,27.14 46.35,29.21 43.14,29.21 C39.93,29.21 38.43,27.14 38.43,23.96 L38.43,22.76 L40.62,22.76 L40.62,24.08 C40.62,25.97 41.4,27.08 43.08,27.08 C44.76,27.08 45.54,25.97 45.54,24.08 C45.54,19.4 38.52,18.95 38.52,13.04 C38.52,9.8 40.02,7.79 43.17,7.79 Z M62.76,29 L60.45,29 L60.45,10.13 L56.58,10.13 L56.58,8 L66.63,8 L66.63,10.13 L62.76,10.13 L62.76,29 Z" id="best" fill="#00D8DA"></path>
                    </g>
                </g>
            </g>
        </g>
    </g>
</svg>