<?xml version="1.0" encoding="UTF-8" standalone="no"?>
<svg width="24px" height="20px" viewBox="0 0 24 20" version="1.1" xmlns="http://www.w3.org/2000/svg" xmlns:xlink="http://www.w3.org/1999/xlink">
    <!-- Generator: Sketch 50.2 (55047) - http://www.bohemiancoding.com/sketch -->
    <title>Shape</title>
    <desc>Created with Sketch.</desc>
    <defs></defs>
    <g id="Page-1" stroke="none" stroke-width="1" fill="none" fill-rule="evenodd">
        <g id="Mock-up" transform="translate(-1285.000000, -12.000000)" fill="#FFFFFF">
            <g id="HEADER" transform="translate(-262.000000, 1.000000)">
                <g id="NAV" transform="translate(262.000000, 0.000000)">
                    <path d="M1293.36164,23.6768343 L1303.50311,23.6768343 C1304.11232,23.6772022 1304.663,23.3140725 1304.90263,22.7539607 L1307.94507,15.6549335 C1308.1462,15.1848109 1308.09768,14.6450923 1307.81592,14.2183806 C1307.53417,13.7916689 1307.05689,13.5350579 1306.54555,13.5353669 L1289.81213,13.5353669 C1289.51963,13.5391393 1289.23441,13.6271673 1288.99067,13.7889035 L1287.97652,11.456366 C1287.8559,11.1799828 1287.58339,11.0009602 1287.28183,11 L1285.76061,11 C1285.34054,11 1285,11.3405367 1285,11.7606101 C1285,12.1806834 1285.34054,12.5212201 1285.76061,12.5212201 L1286.77476,12.5212201 L1291.40434,23.0987706 C1291.97766,24.8142377 1291.7662,26.6951563 1290.82627,28.2404946 C1290.82506,29.2725036 1291.4495,30.2022653 1292.40527,30.5915506 C1293.36104,30.9808359 1294.4574,30.7519519 1295.17758,30.0127796 C1295.89777,29.2736073 1296.09805,28.1716694 1295.68404,27.2263479 L1301.18578,27.2263479 C1300.73847,28.2514758 1301.01574,29.448613 1301.8682,30.1726935 C1302.72066,30.8967739 1303.94688,30.9767141 1304.88614,30.3694389 C1305.82539,29.7621637 1306.25574,28.6111583 1305.94531,27.5366312 C1305.63488,26.4621041 1304.657,25.7179412 1303.5386,25.7051278 L1293.48334,25.7051278 L1293.48334,25.7051278 L1293.38192,25.7051278 C1292.82183,25.7051278 1292.36778,25.2510788 1292.36778,24.690981 C1292.36778,24.1308832 1292.82183,23.6768343 1293.38192,23.6768343 L1293.36164,23.6768343 Z M1306.54555,15.056587 L1303.50311,22.1556142 L1292.85457,22.1556142 L1289.81213,15.056587 L1306.54555,15.056587 Z M1294.37579,28.2404946 C1294.37579,28.8005924 1293.92174,29.2546414 1293.36164,29.2546414 C1292.80154,29.2546414 1292.34749,28.8005924 1292.34749,28.2404946 C1292.34749,27.6803968 1292.80154,27.2263479 1293.36164,27.2263479 C1293.92174,27.2263479 1294.37579,27.6803968 1294.37579,28.2404946 Z M1304.51725,28.2404946 C1304.51725,28.8005924 1304.06321,29.2546414 1303.50311,29.2546414 C1302.94301,29.2546414 1302.48896,28.8005924 1302.48896,28.2404946 C1302.48896,27.6803968 1302.94301,27.2263479 1303.50311,27.2263479 C1304.06321,27.2263479 1304.51725,27.6803968 1304.51725,28.2404946 Z" id="Shape"></path>
                </g>
            </g>
        </g>
    </g>
</svg>