<?xml version="1.0" encoding="UTF-8" standalone="no"?>
<svg width="25px" height="25px" viewBox="0 0 25 25" version="1.1" xmlns="http://www.w3.org/2000/svg" xmlns:xlink="http://www.w3.org/1999/xlink">
    <!-- Generator: Sketch 50.2 (55047) - http://www.bohemiancoding.com/sketch -->
    <title>Face</title>
    <desc>Created with Sketch.</desc>
    <defs></defs>
    <g id="Page-1" stroke="none" stroke-width="1" fill="none" fill-rule="evenodd">
        <g id="Mock-up" transform="translate(-180.000000, -10.000000)">
            <g id="HEADER" transform="translate(-262.000000, 1.000000)">
                <g id="NAV" transform="translate(262.000000, 0.000000)">
                    <g id="Face" transform="translate(180.000000, 9.000000)">
                        <path d="M24.9843066,20.7145985 C24.9843066,23.0667883 23.0773723,24.9733577 20.7251825,24.9733577 L4.31952555,24.9733577 C1.96715328,24.9733577 0.0604014599,23.0667883 0.0604014599,20.7145985 L0.0604014599,4.30875912 C0.0604014599,1.95675182 1.96715328,0.0496350365 4.31952555,0.0496350365 L20.7251825,0.0496350365 C23.0773723,0.0496350365 24.9843066,1.95675182 24.9843066,4.30875912 L24.9843066,20.7145985" id="Fill-836" fill="#00D8DA"></path>
                        <path d="M17.1618613,24.9733577 L17.1618613,15.4043796 L20.3737226,15.4043796 L20.8547445,11.675 L17.1618613,11.675 L17.1618613,9.29416058 C17.1618613,8.21423358 17.4613139,7.47864964 19.009854,7.47864964 L20.9846715,7.47791971 L20.9846715,4.14215328 C20.6428832,4.09708029 19.4709854,3.99562044 18.1067518,3.99562044 C15.2600365,3.99562044 13.3105839,5.73321168 13.3105839,8.925 L13.3105839,11.675 L10.0905109,11.675 L10.0905109,15.4043796 L13.3105839,15.4043796 L13.3105839,24.9733577 L17.1618613,24.9733577" id="Fill-837" fill="#000000"></path>
                    </g>
                </g>
            </g>
        </g>
    </g>
</svg>