<?xml version="1.0" encoding="UTF-8" standalone="no"?>
<svg width="25px" height="25px" viewBox="0 0 25 25" version="1.1" xmlns="http://www.w3.org/2000/svg" xmlns:xlink="http://www.w3.org/1999/xlink">
    <!-- Generator: Sketch 50.2 (55047) - http://www.bohemiancoding.com/sketch -->
    <title>Insta</title>
    <desc>Created with Sketch.</desc>
    <defs></defs>
    <g id="Page-1" stroke="none" stroke-width="1" fill="none" fill-rule="evenodd">
        <g id="Mock-up" transform="translate(-100.000000, -10.000000)">
            <g id="HEADER" transform="translate(-262.000000, 1.000000)">
                <g id="NAV" transform="translate(262.000000, 0.000000)">
                    <g id="Insta" transform="translate(100.000000, 9.000000)">
                        <path d="M25,20.7276894 C25,23.0872437 23.0875817,25 20.7279929,25 L4.27200709,25 C1.91241827,25 0,23.0872437 0,20.7276894 L0,4.27194453 C0,1.91275635 1.91241827,0 4.27200709,0 L20.7279929,0 C23.0875817,0 25,1.91275635 25,4.27194453 L25,20.7276894" id="Fill-838" fill="#00D8DA"></path>
                        <path d="M8.07973327,3.86699622 C5.30633482,3.86699622 3.05012023,6.13986761 3.05012023,8.93355497 L3.05012023,16.0658868 C3.05012023,18.8597602 5.30633482,21.1326316 8.07973327,21.1326316 L16.1139998,21.1326316 C18.8872136,21.1326316 21.1434282,18.8597602 21.1434282,16.0658868 L21.1434282,8.93355497 C21.1434282,6.13986761 18.8872136,3.86699622 16.1139998,3.86699622 L8.07973327,3.86699622 Z M16.1139998,22.5806452 L8.07973327,22.5806452 C4.51411997,22.5806452 1.61290323,19.6580098 1.61290323,16.0658868 L1.61290323,8.93355497 C1.61290323,5.34161806 4.51411997,2.41935484 8.07973327,2.41935484 L16.1139998,2.41935484 C19.6794284,2.41935484 22.5806452,5.34161806 22.5806452,8.93355497 L22.5806452,16.0658868 C22.5806452,19.6580098 19.6794284,22.5806452 16.1139998,22.5806452 Z" id="Fill-839" fill="#000000"></path>
                        <path d="M12.0966836,7.86068429 C9.76105463,7.86068429 7.86070689,9.7608204 7.86070689,12.0965931 C7.86070689,14.4321846 9.76105463,16.3323207 12.0966836,16.3323207 C14.4323126,16.3323207 16.3324792,14.4321846 16.3324792,12.0965931 C16.3324792,9.7608204 14.4323126,7.86068429 12.0966836,7.86068429 Z M12.0966836,17.7419355 C8.98377962,17.7419355 6.4516129,15.2094471 6.4516129,12.0965931 C6.4516129,8.98355786 8.98377962,6.4516129 12.0966836,6.4516129 C15.2095876,6.4516129 17.7419355,8.98355786 17.7419355,12.0965931 C17.7419355,15.2094471 15.2095876,17.7419355 12.0966836,17.7419355 Z" id="Fill-840" fill="#000000"></path>
                        <path d="M19.3548387,6.85502579 C19.3548387,7.52291141 18.8134629,8.06451613 18.1454419,8.06451613 C17.4772338,8.06451613 16.9354839,7.52291141 16.9354839,6.85502579 C16.9354839,6.18676601 17.4772338,5.64516129 18.1454419,5.64516129 C18.8134629,5.64516129 19.3548387,6.18676601 19.3548387,6.85502579" id="Fill-841" fill="#000000"></path>
                    </g>
                </g>
            </g>
        </g>
    </g>
</svg>