<?xml version="1.0" encoding="UTF-8" standalone="no"?>
<svg width="152px" height="81px" viewBox="0 0 152 81" version="1.1" xmlns="http://www.w3.org/2000/svg" xmlns:xlink="http://www.w3.org/1999/xlink">
    <!-- Generator: Sketch 50.2 (55047) - http://www.bohemiancoding.com/sketch -->
    <title>merch-ban-outlines</title>
    <desc>Created with Sketch.</desc>
    <defs></defs>
    <g id="Page-1" stroke="none" stroke-width="1" fill="none" fill-rule="evenodd">
        <g id="Mock-up" transform="translate(-98.000000, -1007.000000)">
            <g id="Prod-Group" transform="translate(81.000000, 1000.000000)">
                <g id="merch-ban-outlines" transform="translate(17.000000, 7.000000)">
                    <path d="M20.45,39.85 L14.9,67.95 L11.15,67.95 L5.35,40.1 L5.35,68 L1.95,68 L1.95,33 L7.4,33 L13.15,60.95 L18.7,33 L24.15,33 L24.15,68 L20.45,68 L20.45,39.85 Z M44.55,48.5 L53.1,48.5 L53.1,52 L44.55,52 L44.55,64.45 L55.05,64.45 L55.05,68 L40.65,68 L40.65,33 L55.05,33 L55.05,36.55 L44.55,36.55 L44.55,48.5 Z M71.15,33 L78.95,33 C84.45,33 86.75,35.8 86.75,41 L86.75,43.85 C86.75,47.7 85.4,50.1 82.4,51.05 C85.6,52 86.8,54.6 86.8,58.35 L86.8,63.8 C86.8,65.35 86.85,66.8 87.5,68 L83.55,68 C83.1,67 82.9,66.1 82.9,63.75 L82.9,58.25 C82.9,54.3 81.05,53.05 77.8,53.05 L75.05,53.05 L75.05,68 L71.15,68 L71.15,33 Z M75.05,49.5 L77.95,49.5 C81.05,49.5 82.9,48.5 82.9,44.7 L82.9,41.35 C82.9,38.2 81.75,36.55 78.85,36.55 L75.05,36.55 L75.05,49.5 Z M110.9,32.65 C116.3,32.65 118.8,36.15 118.8,41.45 L118.8,44.6 L115.1,44.6 L115.1,41.25 C115.1,38.1 113.85,36.2 111,36.2 C108.2,36.2 106.9,38.1 106.9,41.25 L106.9,59.75 C106.9,62.9 108.2,64.8 111,64.8 C113.85,64.8 115.1,62.9 115.1,59.75 L115.1,55.2 L118.8,55.2 L118.8,59.55 C118.8,64.85 116.3,68.35 110.9,68.35 C105.55,68.35 103.05,64.85 103.05,59.55 L103.05,41.45 C103.05,36.15 105.55,32.65 110.9,32.65 Z M147.35,52.25 L138.75,52.25 L138.75,68 L134.85,68 L134.85,33 L138.75,33 L138.75,48.75 L147.35,48.75 L147.35,33 L151.25,33 L151.25,68 L147.35,68 L147.35,52.25 Z" id="merch" fill="#212121"></path>
                    <rect id="Rectangle-6" fill="#00D8DA" x="0" y="78" width="70" height="3"></rect>
                    <path d="M1.02,16.93 L1.02,6.07 C1.02,2.86 2.61,0.79 5.82,0.79 C9.06,0.79 10.65,2.86 10.65,6.07 L10.65,16.93 C10.65,20.11 9.06,22.21 5.82,22.21 C2.61,22.21 1.02,20.11 1.02,16.93 Z M3.33,5.95 L3.33,17.05 C3.33,18.97 4.14,20.08 5.82,20.08 C7.53,20.08 8.31,18.97 8.31,17.05 L8.31,5.95 C8.31,4.06 7.53,2.92 5.82,2.92 C4.14,2.92 3.33,4.06 3.33,5.95 Z M22.59,1 L22.59,17.05 C22.59,18.94 23.34,20.08 25.05,20.08 C26.73,20.08 27.48,18.94 27.48,17.05 L27.48,1 L29.67,1 L29.67,16.93 C29.67,20.11 28.2,22.24 24.96,22.24 C21.75,22.24 20.28,20.11 20.28,16.93 L20.28,1 L22.59,1 Z M39.48,1 L44.16,1 C47.46,1 48.84,2.68 48.84,5.8 L48.84,7.51 C48.84,9.82 48.03,11.26 46.23,11.83 C48.15,12.4 48.87,13.96 48.87,16.21 L48.87,19.48 C48.87,20.41 48.9,21.28 49.29,22 L46.92,22 C46.65,21.4 46.53,20.86 46.53,19.45 L46.53,16.15 C46.53,13.78 45.42,13.03 43.47,13.03 L41.82,13.03 L41.82,22 L39.48,22 L39.48,1 Z M41.82,10.9 L43.56,10.9 C45.42,10.9 46.53,10.3 46.53,8.02 L46.53,6.01 C46.53,4.12 45.84,3.13 44.1,3.13 L41.82,3.13 L41.82,10.9 Z" id="our" fill="#00D8DA"></path>
                </g>
            </g>
        </g>
    </g>
</svg>