<?xml version="1.0" encoding="UTF-8" standalone="no"?>
<svg width="325px" height="159px" viewBox="0 0 325 159" version="1.1" xmlns="http://www.w3.org/2000/svg" xmlns:xlink="http://www.w3.org/1999/xlink">
    <!-- Generator: Sketch 50.2 (55047) - http://www.bohemiancoding.com/sketch -->
    <title>slogan-svg</title>
    <desc>Created with Sketch.</desc>
    <defs></defs>
    <g id="Page-1" stroke="none" stroke-width="1" fill="none" fill-rule="evenodd">
        <g id="Mock-up" transform="translate(-266.000000, -545.000000)" fill="#FFFFFF">
            <g id="HEADER" transform="translate(-262.000000, 1.000000)">
                <g id="Slogan" transform="translate(459.000000, 482.000000)">
                    <g id="slogan-svg" transform="translate(69.000000, 62.000000)">
                        <path d="M13.8,28.95 L4.95,28.95 L3.6,36 L0,36 L6.7,1 L12.35,1 L19.05,36 L15.15,36 L13.8,28.95 Z M9.3,5.4 L5.45,25.6 L13.25,25.6 L9.3,5.4 Z M36,36 L22.1,36 L22.1,1 L26,1 L26,32.45 L36,32.45 L36,36 Z M52.85,36 L38.95,36 L38.95,1 L42.85,1 L42.85,32.45 L52.85,32.45 L52.85,36 Z M72.45,36 L68.6,36 L68.6,4.55 L62.15,4.55 L62.15,1 L78.9,1 L78.9,4.55 L72.45,4.55 L72.45,36 Z M94.05,20.25 L85.45,20.25 L85.45,36 L81.55,36 L81.55,1 L85.45,1 L85.45,16.75 L94.05,16.75 L94.05,1 L97.95,1 L97.95,36 L94.05,36 L94.05,20.25 Z M105.85,16.5 L114.4,16.5 L114.4,20 L105.85,20 L105.85,32.45 L116.35,32.45 L116.35,36 L101.95,36 L101.95,1 L116.35,1 L116.35,4.55 L105.85,4.55 L105.85,16.5 Z M140.5,28.95 L131.65,28.95 L130.3,36 L126.7,36 L133.4,1 L139.05,1 L145.75,36 L141.85,36 L140.5,28.95 Z M136,5.4 L132.15,25.6 L139.95,25.6 L136,5.4 Z M148.8,1 L156.45,1 C161.95,1 164.3,4.25 164.3,9.55 L164.3,13.75 C164.3,19.3 161.7,22.2 156.15,22.2 L152.7,22.2 L152.7,36 L148.8,36 L148.8,1 Z M152.7,18.7 L156.15,18.7 C159.05,18.7 160.45,17.35 160.45,14 L160.45,9.35 C160.45,6.15 159.3,4.55 156.45,4.55 L152.7,4.55 L152.7,18.7 Z M167.35,1 L175,1 C180.5,1 182.85,4.25 182.85,9.55 L182.85,13.75 C182.85,19.3 180.25,22.2 174.7,22.2 L171.25,22.2 L171.25,36 L167.35,36 L167.35,1 Z M171.25,18.7 L174.7,18.7 C177.6,18.7 179,17.35 179,14 L179,9.35 C179,6.15 177.85,4.55 175,4.55 L171.25,4.55 L171.25,18.7 Z M198.7,28.95 L189.85,28.95 L188.5,36 L184.9,36 L191.6,1 L197.25,1 L203.95,36 L200.05,36 L198.7,28.95 Z M194.2,5.4 L190.35,25.6 L198.15,25.6 L194.2,5.4 Z M207,1 L214.8,1 C220.3,1 222.6,3.8 222.6,9 L222.6,11.85 C222.6,15.7 221.25,18.1 218.25,19.05 C221.45,20 222.65,22.6 222.65,26.35 L222.65,31.8 C222.65,33.35 222.7,34.8 223.35,36 L219.4,36 C218.95,35 218.75,34.1 218.75,31.75 L218.75,26.25 C218.75,22.3 216.9,21.05 213.65,21.05 L210.9,21.05 L210.9,36 L207,36 L207,1 Z M210.9,17.5 L213.8,17.5 C216.9,17.5 218.75,16.5 218.75,12.7 L218.75,9.35 C218.75,6.2 217.6,4.55 214.7,4.55 L210.9,4.55 L210.9,17.5 Z M230.6,16.5 L239.15,16.5 L239.15,20 L230.6,20 L230.6,32.45 L241.1,32.45 L241.1,36 L226.7,36 L226.7,1 L241.1,1 L241.1,4.55 L230.6,4.55 L230.6,16.5 Z M258.6,36 L244.7,36 L244.7,1 L248.6,1 L248.6,32.45 L258.6,32.45 L258.6,36 Z M275.5,36 L275.5,23.45 L268.1,1 L272.15,1 L277.6,18.2 L283.1,1 L286.8,1 L279.35,23.45 L279.35,36 L275.5,36 Z M289.3,27.55 L289.3,9.45 C289.3,4.1 291.95,0.65 297.3,0.65 C302.7,0.65 305.35,4.1 305.35,9.45 L305.35,27.55 C305.35,32.85 302.7,36.35 297.3,36.35 C291.95,36.35 289.3,32.85 289.3,27.55 Z M293.15,9.25 L293.15,27.75 C293.15,30.95 294.5,32.8 297.3,32.8 C300.15,32.8 301.45,30.95 301.45,27.75 L301.45,9.25 C301.45,6.1 300.15,4.2 297.3,4.2 C294.5,4.2 293.15,6.1 293.15,9.25 Z M312.75,1 L312.75,27.75 C312.75,30.9 314,32.8 316.85,32.8 C319.65,32.8 320.9,30.9 320.9,27.75 L320.9,1 L324.55,1 L324.55,27.55 C324.55,32.85 322.1,36.4 316.7,36.4 C311.35,36.4 308.9,32.85 308.9,27.55 L308.9,1 L312.75,1 Z" id="all-the-apparel-you"></path>
                        <path d="M30.45,68.7 L30.45,97 L26.95,97 L26.95,62 L31.9,62 L40,87.3 L40,62 L43.45,62 L43.45,97 L39.4,97 L30.45,68.7 Z M51.35,77.5 L59.9,77.5 L59.9,81 L51.35,81 L51.35,93.45 L61.85,93.45 L61.85,97 L47.45,97 L47.45,62 L61.85,62 L61.85,65.55 L51.35,65.55 L51.35,77.5 Z M69.35,77.5 L77.9,77.5 L77.9,81 L69.35,81 L69.35,93.45 L79.85,93.45 L79.85,97 L65.45,97 L65.45,62 L79.85,62 L79.85,65.55 L69.35,65.55 L69.35,77.5 Z M83.45,62 L91.65,62 C97.1,62 99.6,65.3 99.6,70.7 L99.6,88.35 C99.6,93.7 97.1,97 91.65,97 L83.45,97 L83.45,62 Z M87.35,93.45 L91.6,93.45 C94.4,93.45 95.75,91.7 95.75,88.5 L95.75,70.5 C95.75,67.3 94.4,65.55 91.55,65.55 L87.35,65.55 L87.35,93.45 Z M114.9,78.3 L122.95,78.3 L122.95,81.85 L114.9,81.85 L114.9,97 L111,97 L111,62 L124.9,62 L124.9,65.55 L114.9,65.55 L114.9,78.3 Z M127.7,88.55 L127.7,70.45 C127.7,65.1 130.35,61.65 135.7,61.65 C141.1,61.65 143.75,65.1 143.75,70.45 L143.75,88.55 C143.75,93.85 141.1,97.35 135.7,97.35 C130.35,97.35 127.7,93.85 127.7,88.55 Z M131.55,70.25 L131.55,88.75 C131.55,91.95 132.9,93.8 135.7,93.8 C138.55,93.8 139.85,91.95 139.85,88.75 L139.85,70.25 C139.85,67.1 138.55,65.2 135.7,65.2 C132.9,65.2 131.55,67.1 131.55,70.25 Z M147.45,62 L155.25,62 C160.75,62 163.05,64.8 163.05,70 L163.05,72.85 C163.05,76.7 161.7,79.1 158.7,80.05 C161.9,81 163.1,83.6 163.1,87.35 L163.1,92.8 C163.1,94.35 163.15,95.8 163.8,97 L159.85,97 C159.4,96 159.2,95.1 159.2,92.75 L159.2,87.25 C159.2,83.3 157.35,82.05 154.1,82.05 L151.35,82.05 L151.35,97 L147.45,97 L147.45,62 Z M151.35,78.5 L154.25,78.5 C157.35,78.5 159.2,77.5 159.2,73.7 L159.2,70.35 C159.2,67.2 158.05,65.55 155.15,65.55 L151.35,65.55 L151.35,78.5 Z M188.8,97 L174.9,97 L174.9,62 L178.8,62 L178.8,93.45 L188.8,93.45 L188.8,97 Z M191.75,62 L195.65,62 L195.65,97 L191.75,97 L191.75,62 Z M203.55,78.3 L211.6,78.3 L211.6,81.85 L203.55,81.85 L203.55,97 L199.65,97 L199.65,62 L213.55,62 L213.55,65.55 L203.55,65.55 L203.55,78.3 Z M220.55,77.5 L229.1,77.5 L229.1,81 L220.55,81 L220.55,93.45 L231.05,93.45 L231.05,97 L216.65,97 L216.65,62 L231.05,62 L231.05,65.55 L220.55,65.55 L220.55,77.5 Z M242.1,88.55 L242.1,70.45 C242.1,65.1 244.75,61.65 250.1,61.65 C255.5,61.65 258.15,65.1 258.15,70.45 L258.15,88.55 C258.15,93.85 255.5,97.35 250.1,97.35 C244.75,97.35 242.1,93.85 242.1,88.55 Z M245.95,70.25 L245.95,88.75 C245.95,91.95 247.3,93.8 250.1,93.8 C252.95,93.8 254.25,91.95 254.25,88.75 L254.25,70.25 C254.25,67.1 252.95,65.2 250.1,65.2 C247.3,65.2 245.95,67.1 245.95,70.25 Z M265.75,78.3 L273.8,78.3 L273.8,81.85 L265.75,81.85 L265.75,97 L261.85,97 L261.85,62 L275.75,62 L275.75,65.55 L265.75,65.55 L265.75,78.3 Z M282.75,78.3 L290.8,78.3 L290.8,81.85 L282.75,81.85 L282.75,97 L278.85,97 L278.85,62 L292.75,62 L292.75,65.55 L282.75,65.55 L282.75,78.3 Z" id="need-for-life-off"></path>
                        <path d="M64.9,158 L61.05,158 L61.05,126.55 L54.6,126.55 L54.6,123 L71.35,123 L71.35,126.55 L64.9,126.55 L64.9,158 Z M86.5,142.25 L77.9,142.25 L77.9,158 L74,158 L74,123 L77.9,123 L77.9,138.75 L86.5,138.75 L86.5,123 L90.4,123 L90.4,158 L86.5,158 L86.5,142.25 Z M98.3,138.5 L106.85,138.5 L106.85,142 L98.3,142 L98.3,154.45 L108.8,154.45 L108.8,158 L94.4,158 L94.4,123 L108.8,123 L108.8,126.55 L98.3,126.55 L98.3,138.5 Z M138.6,129.85 L133.05,157.95 L129.3,157.95 L123.5,130.1 L123.5,158 L120.1,158 L120.1,123 L125.55,123 L131.3,150.95 L136.85,123 L142.3,123 L142.3,158 L138.6,158 L138.6,129.85 Z M146,149.55 L146,131.45 C146,126.1 148.65,122.65 154,122.65 C159.4,122.65 162.05,126.1 162.05,131.45 L162.05,149.55 C162.05,154.85 159.4,158.35 154,158.35 C148.65,158.35 146,154.85 146,149.55 Z M149.85,131.25 L149.85,149.75 C149.85,152.95 151.2,154.8 154,154.8 C156.85,154.8 158.15,152.95 158.15,149.75 L158.15,131.25 C158.15,128.1 156.85,126.2 154,126.2 C151.2,126.2 149.85,128.1 149.85,131.25 Z M169.45,123 L169.45,149.75 C169.45,152.9 170.7,154.8 173.55,154.8 C176.35,154.8 177.6,152.9 177.6,149.75 L177.6,123 L181.25,123 L181.25,149.55 C181.25,154.85 178.8,158.4 173.4,158.4 C168.05,158.4 165.6,154.85 165.6,149.55 L165.6,123 L169.45,123 Z M188.55,129.7 L188.55,158 L185.05,158 L185.05,123 L190,123 L198.1,148.3 L198.1,123 L201.55,123 L201.55,158 L197.5,158 L188.55,129.7 Z M214.45,158 L210.6,158 L210.6,126.55 L204.15,126.55 L204.15,123 L220.9,123 L220.9,126.55 L214.45,126.55 L214.45,158 Z M236.35,150.95 L227.5,150.95 L226.15,158 L222.55,158 L229.25,123 L234.9,123 L241.6,158 L237.7,158 L236.35,150.95 Z M231.85,127.4 L228,147.6 L235.8,147.6 L231.85,127.4 Z M244.65,123 L248.55,123 L248.55,158 L244.65,158 L244.65,123 Z M256,129.7 L256,158 L252.5,158 L252.5,123 L257.45,123 L265.55,148.3 L265.55,123 L269,123 L269,158 L264.95,158 L256,129.7 Z" id="the-mountain"></path>
                    </g>
                </g>
            </g>
        </g>
    </g>
</svg>