<?xml version="1.0" encoding="UTF-8" standalone="no"?>
<svg width="165px" height="81px" viewBox="0 0 165 81" version="1.1" xmlns="http://www.w3.org/2000/svg" xmlns:xlink="http://www.w3.org/1999/xlink">
    <!-- Generator: Sketch 50.2 (55047) - http://www.bohemiancoding.com/sketch -->
    <title>social-ban</title>
    <desc>Created with Sketch.</desc>
    <defs></defs>
    <g id="Page-1" stroke="none" stroke-width="1" fill="none" fill-rule="evenodd">
        <g id="Mock-up" transform="translate(-101.000000, -2494.000000)">
            <g id="Social" transform="translate(1.000000, 2487.000000)">
                <g id="social-ban" transform="translate(100.000000, 0.000000)">
                    <path d="M9.35,39.65 C14.65,39.65 17.15,43.1 17.15,48.4 L17.15,49.35 L13.45,49.35 L13.45,48.2 C13.45,45.05 12.25,43.2 9.45,43.2 C6.65,43.2 5.45,45.05 5.45,48.15 C5.45,56 17.2,56.75 17.2,66.6 C17.2,71.9 14.65,75.35 9.3,75.35 C3.95,75.35 1.45,71.9 1.45,66.6 L1.45,64.6 L5.1,64.6 L5.1,66.8 C5.1,69.95 6.4,71.8 9.2,71.8 C12,71.8 13.3,69.95 13.3,66.8 C13.3,59 1.6,58.25 1.6,48.4 C1.6,43 4.1,39.65 9.35,39.65 Z M32.8,66.55 L32.8,48.45 C32.8,43.1 35.45,39.65 40.8,39.65 C46.2,39.65 48.85,43.1 48.85,48.45 L48.85,66.55 C48.85,71.85 46.2,75.35 40.8,75.35 C35.45,75.35 32.8,71.85 32.8,66.55 Z M36.65,48.25 L36.65,66.75 C36.65,69.95 38,71.8 40.8,71.8 C43.65,71.8 44.95,69.95 44.95,66.75 L44.95,48.25 C44.95,45.1 43.65,43.2 40.8,43.2 C38,43.2 36.65,45.1 36.65,48.25 Z M72.6,39.65 C78,39.65 80.5,43.15 80.5,48.45 L80.5,51.6 L76.8,51.6 L76.8,48.25 C76.8,45.1 75.55,43.2 72.7,43.2 C69.9,43.2 68.6,45.1 68.6,48.25 L68.6,66.75 C68.6,69.9 69.9,71.8 72.7,71.8 C75.55,71.8 76.8,69.9 76.8,66.75 L76.8,62.2 L80.5,62.2 L80.5,66.55 C80.5,71.85 78,75.35 72.6,75.35 C67.25,75.35 64.75,71.85 64.75,66.55 L64.75,48.45 C64.75,43.15 67.25,39.65 72.6,39.65 Z M96.55,40 L100.45,40 L100.45,75 L96.55,75 L96.55,40 Z M129.75,67.95 L120.9,67.95 L119.55,75 L115.95,75 L122.65,40 L128.3,40 L135,75 L131.1,75 L129.75,67.95 Z M125.25,44.4 L121.4,64.6 L129.2,64.6 L125.25,44.4 Z M164.45,75 L150.55,75 L150.55,40 L154.45,40 L154.45,71.45 L164.45,71.45 L164.45,75 Z" id="social" fill="#212121"></path>
                    <rect id="Rectangle-6" fill="#00D8DA" x="0" y="85" width="70" height="3"></rect>
                    <path d="M1.2,8 L5.88,8 C9.18,8 10.56,9.68 10.56,12.8 L10.56,14.51 C10.56,16.82 9.75,18.26 7.95,18.83 C9.87,19.4 10.59,20.96 10.59,23.21 L10.59,26.48 C10.59,27.41 10.62,28.28 11.01,29 L8.64,29 C8.37,28.4 8.25,27.86 8.25,26.45 L8.25,23.15 C8.25,20.78 7.14,20.03 5.19,20.03 L3.54,20.03 L3.54,29 L1.2,29 L1.2,8 Z M3.54,17.9 L5.28,17.9 C7.14,17.9 8.25,17.3 8.25,15.02 L8.25,13.01 C8.25,11.12 7.56,10.13 5.82,10.13 L3.54,10.13 L3.54,17.9 Z M22.86,17.3 L27.99,17.3 L27.99,19.4 L22.86,19.4 L22.86,26.87 L29.16,26.87 L29.16,29 L20.52,29 L20.52,8 L29.16,8 L29.16,10.13 L22.86,10.13 L22.86,17.3 Z M43.35,7.79 C46.59,7.79 48.09,9.89 48.09,13.07 L48.09,14.96 L45.87,14.96 L45.87,12.95 C45.87,11.06 45.12,9.92 43.41,9.92 C41.73,9.92 40.95,11.06 40.95,12.95 L40.95,24.05 C40.95,25.94 41.73,27.08 43.41,27.08 C45.12,27.08 45.87,25.94 45.87,24.05 L45.87,21.32 L48.09,21.32 L48.09,23.93 C48.09,27.11 46.59,29.21 43.35,29.21 C40.14,29.21 38.64,27.11 38.64,23.93 L38.64,13.07 C38.64,9.89 40.14,7.79 43.35,7.79 Z M60.06,17.3 L65.19,17.3 L65.19,19.4 L60.06,19.4 L60.06,26.87 L66.36,26.87 L66.36,29 L57.72,29 L57.72,8 L66.36,8 L66.36,10.13 L60.06,10.13 L60.06,17.3 Z M78.09,12.02 L78.09,29 L75.99,29 L75.99,8 L78.96,8 L83.82,23.18 L83.82,8 L85.89,8 L85.89,29 L83.46,29 L78.09,12.02 Z M101.13,29 L98.82,29 L98.82,10.13 L94.95,10.13 L94.95,8 L105,8 L105,10.13 L101.13,10.13 L101.13,29 Z" id="recent" fill="#00D8DA"></path>
                </g>
            </g>
        </g>
    </g>
</svg>