<?xml version="1.0" encoding="UTF-8" standalone="no"?>
<svg width="25px" height="25px" viewBox="0 0 25 25" version="1.1" xmlns="http://www.w3.org/2000/svg" xmlns:xlink="http://www.w3.org/1999/xlink">
    <!-- Generator: Sketch 50.2 (55047) - http://www.bohemiancoding.com/sketch -->
    <title>Twit</title>
    <desc>Created with Sketch.</desc>
    <defs></defs>
    <g id="Page-1" stroke="none" stroke-width="1" fill="none" fill-rule="evenodd">
        <g id="Mock-up" transform="translate(-140.000000, -10.000000)">
            <g id="HEADER" transform="translate(-262.000000, 1.000000)">
                <g id="NAV" transform="translate(262.000000, 0.000000)">
                    <g id="Twit" transform="translate(140.000000, 9.000000)">
                        <path d="M24.9235401,20.6645985 C24.9235401,23.0169708 23.0166058,24.9239051 20.6642336,24.9239051 L4.25875912,24.9239051 C1.90675182,24.9239051 0,23.0169708 0,20.6645985 L0,4.25894161 C0,1.90693431 1.90675182,0 4.25875912,0 L20.6642336,0 C23.0166058,0 24.9235401,1.90693431 24.9235401,4.25894161 L24.9235401,20.6645985" id="Fill-832" fill="#00D8DA"></path>
                        <path d="M21.1678832,5.47453255 C21.1678832,5.47453255 21.1678832,5.47403255 21.1678832,5.47553255 C21.1678832,5.47553255 21.1678832,5.47553255 21.1678832,5.47453255" id="Fill-833" fill="#FFFFFE"></path>
                        <path d="M20.5361314,7.29343066 C20.1576642,7.3979927 19.859854,7.38156934 19.859854,7.38156934 L19.8720803,7.30985401 C20.2240876,7.02791971 21.1124088,6.1629562 21.229562,5.75839416 C21.2806569,5.58357664 21.220438,5.52335766 21.220073,5.51733577 L20.0855839,5.99927007 L19.1363139,6.42755474 C18.4810219,5.73394161 17.4890511,5.2919708 16.3801095,5.2919708 C14.4067518,5.2919708 12.8065693,6.68959854 12.8065693,8.41478102 C12.8065693,8.73029197 12.8536496,9.30565693 12.9527372,9.59288321 C12.9527372,9.68339416 12.9563869,9.50218978 12.9527372,9.59288321 C11.6819343,9.5580292 10.0531022,9.0370438 8.60255474,8.30182482 C5.74124088,6.85237226 5.56222628,5.84890511 5.56222628,5.84890511 C5.11277372,6.32591241 4.8810219,7.90583942 5.33649635,9.14470803 C5.62810219,9.9379562 6.63047445,10.649635 6.63047445,10.649635 C6.63047445,10.649635 6.18229927,10.6578467 5.71277372,10.4992701 C5.24306569,10.3405109 5.06569343,10.1833942 5.06569343,10.1833942 C4.78649635,10.8640511 5.34671533,12.0801095 6.3149635,12.9525547 C6.87919708,13.4613139 7.90985401,13.780292 7.90985401,13.780292 L6.29963504,13.8255474 C6.20912409,15.3906934 9.58193431,16.320438 9.58193431,16.320438 C8.59324818,17.0806569 7.44635036,17.5436131 6.2169708,17.5436131 C5.57974453,17.5436131 4.96405109,17.4483577 4.37956204,17.2739051 C6.00383212,18.6122263 8.09142336,19.5364964 10.3614964,19.4171533 C16.3837591,19.1005474 19.7833942,13.9239051 19.945073,8.83978102 L19.9527372,8.85018248 C19.9527372,8.85018248 20.2350365,8.70948905 20.8383212,8.1060219 C21.4414234,7.50273723 21.8166058,6.79689781 21.8166058,6.79689781 C21.8166058,6.79689781 20.914781,7.18905109 20.5361314,7.29343066" id="Fill-834" fill="#000000"></path>
                    </g>
                </g>
            </g>
        </g>
    </g>
</svg>